<mxfile
  host="Electron" 
  agent="Mozilla/5.0 (Macintosh; Intel Mac OS X 10_15_7) AppleWebKit/537.36 (KHTML, like Gecko) draw.io/25.0.2 Chrome/128.0.6613.186 Electron/32.2.5 Safari/537.36" 
  version="25.0.2"
  >
  <diagram
    name="-"
    >
    <mxGraphModel
      grid="1" 
      gridSize="10" 
      guides="1" 
      tooltips="1" 
      connect="1" 
      arrows="1" 
      fold="1" 
      page="1" 
      pageScale="1" 
      pageWidth="1" 
      pageHeight="1" 
      math="0" 
      shadow="0"
      >
      <root>
        <mxCell
          id="page"
          />
        <mxCell
          id="root" 
          parent="page"
          />
        <mxCell
          style="verticalAlign=top;aspect=fixed;align=center;spacingLeft=5;spacingRight=5;spacingBottom=5;strokeColor=none;" 
          id="shape_" 
          parent="root" 
          value=" " 
          vertex="1"
          >
          <mxGeometry
            as="geometry" 
            width="88" 
            height="79" 
            x="0" 
            y="0"
            />
          </mxCell>
        <mxCell
          style="rounded=1;whiteSpace=wrap;verticalAlign=top;align=center;shape=image;editableCssRules=.*;verticalLabelPosition=bottom;labelBackgroundColor=default;aspect=fixed;imageAspect=0;image=data:image/svg+xml,PHN2ZyB4bWxucz0iaHR0cDovL3d3dy53My5vcmcvMjAwMC9zdmciIHZpZXdCb3g9Ii0wLjUgLTAuNSAyOCAxOC42NDgiIGhlaWdodD0iMTguNjQ4IiB3aWR0aD0iMjgiPiYjeGE7CSAgPHN0eWxlIHR5cGU9InRleHQvY3NzIj4uc3QwIHsgc3RvcC1jb2xvcjogcmdiKDM1LCAxNDksIDI1NSk7IH0gLnN0MSB7IHN0b3AtY29sb3I6IHJnYigwLCA4NywgMjEwKTsgfSA8L3N0eWxlPiYjeGE7CTxkZWZzPiYjeGE7CQk8bGluZWFyR3JhZGllbnQgZ3JhZGllbnRVbml0cz0idXNlclNwYWNlT25Vc2UiIHkyPSIyMi4xNDUiIHgyPSIxNS4xMDIiIHkxPSIyLjE0NyIgeDE9IjIuMDM5IiBpZD0iQSI+JiN4YTsJCQk8c3RvcCBjbGFzcz0ic3QwIi8+JiN4YTsJCQk8c3RvcCBjbGFzcz0ic3QxIiBvZmZzZXQ9IjEiLz4mI3hhOwkJPC9saW5lYXJHcmFkaWVudD4mI3hhOwk8L2RlZnM+JiN4YTsJPHBhdGggZmlsbD0idXJsKCNBKSIgZD0iTTI2LjM1MSAxNS44NTFjLjc2NiAwIDEuMTQ5LjM4MyAxLjE0OSAxLjE0OXMtLjM4MyAxLjE0OC0xLjE0OSAxLjE0OEguNjQ4Yy0uMzI4IDAtLjYwMi0uMDkxLS44Mi0uMjczQy0uMzkxIDE3LjY1Ni0uNSAxNy4zNjQtLjUgMTdzLjEwOS0uNjM4LjMyOC0uODJjLjIxOS0uMjE5LjQ5Mi0uMzI4LjgyLS4zMjhIMi4wN2MwLS4wNzMtLjAxOC0uMTI4LS4wNTUtLjE2NHYtLjA1NWMtLjEwOS0uMzI4LS4xNjQtLjY1Ni0uMTY0LS45ODRWM2MwLS45ODQuMzI4LTEuODA1Ljk4NC0yLjQ2MUMzLjQ5Mi0uMTU0IDQuMzMxLS41IDUuMzUyLS41aDE2LjI5N2MxLjAyMSAwIDEuODU5LjM0NiAyLjUxNiAxLjAzOS42NTYuNjU2Ljk4NCAxLjQ3Ny45ODQgMi40NjF2MTEuNjQ4YzAgLjQwMS0uMDczLjgwMi0uMjE5IDEuMjAzek00LjE0OCAxNC42NDhoMTguNzAzVjNjMC0uNzY2LS40MDEtMS4xNDgtMS4yMDMtMS4xNDhINS4zNTJjLS44MDIgMC0xLjIwMy4zODMtMS4yMDMgMS4xNDh6Ii8+JiN4YTs8L3N2Zz4;strokeColor=none;" 
          id="desktop_sap_" 
          parent="shape_" 
          value=" " 
          vertex="1"
          >
          <mxGeometry
            width="28" 
            height="19" 
            as="geometry" 
            x="30" 
            y="30"
            />
          </mxCell>
        </root>
      </mxGraphModel>
    </diagram>
  </mxfile>